<svg xmlns="http://www.w3.org/2000/svg" fill="none" viewBox="0 0 24 24" stroke-width="1.5">
  <path fill="none" stroke="#000000" stroke-linecap="round" stroke-linejoin="round" d="M12 2C6.48 2 2 6.48 2 12s4.48 10 10 10 10-4.48 10-10S17.52 2 12 2Z"/>
  <path fill="none" stroke="#000000" stroke-linecap="round" stroke-linejoin="round" d="M8.5 9a1.5 1.5 0 1 0 0-3 1.5 1.5 0 0 0 0 3Z"/>
  <path fill="none" stroke="#000000" stroke-linecap="round" stroke-linejoin="round" d="M15.5 9a1.5 1.5 0 1 0 0-3 1.5 1.5 0 0 0 0 3Z"/>
  <path fill="none" stroke="#000000" stroke-linecap="round" stroke-linejoin="round" d="M7.5 14.5c0 0 1.5 3 4.5 3s4.5-3 4.5-3"/>
</svg>
