<svg xmlns="http://www.w3.org/2000/svg" fill="none" viewBox="0 0 24 24">
  <path stroke="#000000" stroke-linecap="round" stroke-linejoin="round" stroke-width="1.5" d="M18.71 19.5c-.83 1.24-1.71 2.45-3.05 2.47-1.34.03-1.77-.79-3.29-.79-1.53 0-2 .81-3.27.82-1.31.03-2.3-1.32-3.14-2.53C4.25 17 2.94 12.45 4.7 9.4c.87-1.52 2.47-2.48 4.18-2.51 1.31-.03 2.55.88 3.36.88.81 0 2.32-1.09 3.89-.93.1.01.86.04 1.81.45 1.55.73 2.39 2.15 2.45 2.32-1.97 1.28-1.97 4.87.01 6.13-.41 1.05-1.08 1.98-1.69 2.76Z"/>
  <path stroke="#000000" stroke-linecap="round" stroke-linejoin="round" stroke-width="1.5" d="M15 3.5c.06 1.31-.58 2.55-1.42 3.42-.85.87-2.13 1.43-3.38 1.35-.06-1.26.59-2.53 1.41-3.37.84-.85 2.17-1.42 3.39-1.4Z"/>
</svg>